<svg xmlns="http://www.w3.org/2000/svg" width="295.033" height="91.404" fill="none"><path d="M33.693 41.74L16.732 17.99 33.666 1.06l.427-.43H.25v41.5h33.725zM42.869.63h-.25v25.58c0 3.03.758 5.85 2.273 8.44h.001a17.143 17.143 0 006.096 6.09l.002.01c2.591 1.51 5.403 2.27 8.432 2.27 3.028 0 5.821-.76 8.374-2.27 2.588-1.52 4.642-3.55 6.156-6.1h.001c1.515-2.59 2.272-5.41 2.272-8.44V.63h-2.679v25.58c0 2.55-.637 4.9-1.91 7.06a14.33 14.33 0 01-5.154 5.16c-2.16 1.27-4.512 1.91-7.06 1.91s-4.9-.64-7.06-1.91a14.34 14.34 0 01-5.155-5.16c-1.273-2.16-1.909-4.51-1.909-7.06V.63zm78.319 30.83v-.25H92.146V.63h-2.68v41.5h31.722zm24.138 10.42v.25h2.62V11.5h15.493V.63h-33.606V11.5h15.493zm-130.484-22l13.979 19.57H2.93V31.8z" fill="#000" stroke="#fff" stroke-width=".5"/><path d="M277.456 0c3.063 0 5.891.77 8.483 2.3a16.358 16.358 0 016.126 6.12c1.532 2.6 2.298 5.42 2.298 8.49v8.95c0 3.06-.766 5.89-2.298 8.48-1.492 2.6-3.534 4.66-6.126 6.19-2.592 1.49-5.42 2.24-8.483 2.24-3.064 0-5.891-.75-8.483-2.24a17.231 17.231 0 01-6.186-6.19c-1.492-2.59-2.238-5.42-2.238-8.48v-8.95c0-3.07.746-5.89 2.238-8.49 1.532-2.59 3.594-4.63 6.186-6.12 2.592-1.53 5.419-2.3 8.483-2.3zm-14.728 25.86c0 2.67.648 5.15 1.944 7.42a15.191 15.191 0 005.361 5.36c2.278 1.3 4.752 1.95 7.423 1.95 2.67 0 5.125-.65 7.363-1.95 2.278-1.33 4.065-3.12 5.361-5.36 1.335-2.27 2.003-4.75 2.003-7.42v-8.95c0-2.67-.668-5.13-2.003-7.37a14.138 14.138 0 00-5.361-5.36c-2.238-1.33-4.693-2-7.363-2-2.671 0-5.145.67-7.423 2-2.238 1.3-4.025 3.09-5.361 5.36-1.296 2.24-1.944 4.7-1.944 7.37z" fill="#000"/><path d="M261.69 23.12c13.129-3.22 19.434 14.46 31.64 6.06m-31.383 2.6c9.467-2.32 15.386 6.22 22.528 8.02" stroke="#000" stroke-width="2"/><path fill-rule="evenodd" clip-rule="evenodd" d="M192.565 42.61c1.823-.25 3.551-.81 5.182-1.66V19.64h-5.182zm8.182-3.65a16.653 16.653 0 003.81-4.44c1.493-2.55 2.239-5.32 2.239-8.31v-6.57h-6.049zm6.049-22.32v-6h-6.049v6zm0-9V.88h-14.231v6.76zM189.565.88h-15.876v23.94h15.876zm-15.802 26.94a16.06 16.06 0 002.165 6.7 16.95 16.95 0 006.008 6.01 16.174 16.174 0 007.629 2.23V27.82zm23.984-11.18h-5.182v-6h5.182z" fill="#000"/><mask id="a" maskUnits="userSpaceOnUse" x="333.884" y="1168.45" width="295" height="36" fill="#000"><path fill="#fff" d="M333.884 1168.45h295v36h-295z"/><path d="M341.943 1170.8c1.894 0 3.544.33 4.95.99 1.435.64 2.54 1.61 3.314 2.91.804 1.27 1.206 2.87 1.206 4.81 0 1.16-.187 2.28-.56 3.38a7.635 7.635 0 01-1.722 2.9c-.774.87-1.779 1.56-3.013 2.08-1.205.52-2.668.78-4.39.78h-4.735v12.92h-2.109v-30.77zm-.215 15.82c1.492 0 2.726-.23 3.702-.7 1.004-.49 1.779-1.09 2.324-1.82.574-.75.976-1.53 1.205-2.34.258-.81.388-1.56.388-2.25 0-.98-.158-1.88-.474-2.69a5.496 5.496 0 00-1.42-2.08 5.872 5.872 0 00-2.239-1.38c-.889-.35-1.908-.52-3.056-.52h-5.165v13.78zm28.267-15.82c1.148 0 2.281.17 3.401.52 1.147.32 2.181.84 3.099 1.56.947.69 1.707 1.59 2.281 2.69.574 1.09.861 2.41.861 3.94 0 1.16-.172 2.28-.517 3.38a7.914 7.914 0 01-1.678 2.9c-.775.87-1.779 1.56-3.013 2.08s-2.755.78-4.563.78h-4.735v12.92h-2.109v-30.77zm-.258 15.82c1.521 0 2.783-.22 3.788-.65 1.004-.44 1.793-1 2.367-1.69.574-.7.976-1.45 1.205-2.26a8.12 8.12 0 00.388-2.42c0-.93-.172-1.8-.517-2.6a5.913 5.913 0 00-1.42-2.13 6.612 6.612 0 00-2.281-1.47c-.89-.38-1.88-.56-2.971-.56h-5.165v13.78zm4.39.95l8.48 14h-2.453l-8.523-13.96zm17.769 14l12.914-32.12h.172l12.913 32.12h-2.367l-11.235-28.73 1.464-.83-11.751 29.56zm6.242-12.18h13.559l.602 1.99h-14.678zm51.856 10.14c-.66.41-1.42.8-2.281 1.17-.861.38-1.808.67-2.841.87-1.033.23-2.152.35-3.357.35-2.325 0-4.434-.41-6.328-1.22-1.894-.83-3.515-1.96-4.864-3.38a15.83 15.83 0 01-3.142-4.94c-.717-1.88-1.076-3.87-1.076-5.98 0-2.25.387-4.35 1.162-6.28.775-1.94 1.865-3.63 3.271-5.07a15.216 15.216 0 014.907-3.39c1.866-.8 3.889-1.21 6.07-1.21 1.607 0 3.113.22 4.519.65 1.406.43 2.683 1 3.831 1.69l-.904 1.95a16.225 16.225 0 00-3.4-1.6 12.336 12.336 0 00-4.003-.65c-1.808 0-3.516.36-5.123 1.08-1.607.7-3.027 1.68-4.261 2.95-1.205 1.24-2.152 2.7-2.841 4.38-.688 1.67-1.033 3.48-1.033 5.41 0 1.85.301 3.6.904 5.25a13.283 13.283 0 002.669 4.33 12.931 12.931 0 004.218 2.95c1.636.69 3.458 1.04 5.467 1.04 1.492 0 2.855-.2 4.089-.61 1.262-.43 2.382-.97 3.357-1.6zm10.176-13.3c0-2.17.402-4.19 1.205-6.07a15.773 15.773 0 013.358-5.03 15.471 15.471 0 014.95-3.42c1.894-.84 3.917-1.26 6.069-1.26s4.175.42 6.069 1.26c1.894.81 3.559 1.95 4.993 3.42a15.773 15.773 0 013.358 5.03c.832 1.88 1.248 3.9 1.248 6.07 0 2.16-.416 4.2-1.248 6.11a15.779 15.779 0 01-3.358 4.98 15.529 15.529 0 01-4.993 3.38c-1.894.81-3.917 1.22-6.069 1.22s-4.175-.39-6.069-1.17a15.445 15.445 0 01-4.95-3.3 15.13 15.13 0 01-3.358-4.98c-.803-1.91-1.205-3.99-1.205-6.24zm2.152.04c0 1.88.345 3.64 1.033 5.29.689 1.65 1.65 3.09 2.884 4.33a14.116 14.116 0 004.262 2.95 13.26 13.26 0 005.208 1.04c1.894 0 3.659-.35 5.294-1.04a13.958 13.958 0 004.305-2.95 13.378 13.378 0 002.884-4.33c.717-1.65 1.076-3.43 1.076-5.33 0-1.88-.359-3.64-1.076-5.29a13.279 13.279 0 00-2.884-4.38 13.574 13.574 0 00-4.305-2.99c-1.635-.72-3.386-1.08-5.251-1.08-1.894 0-3.659.37-5.294 1.13a13.415 13.415 0 00-4.305 2.99 14.155 14.155 0 00-2.841 4.42c-.66 1.64-.99 3.39-.99 5.24zm36.476-15.39h2.41l10.116 27.83-.474-.13 6.371-17.34.99 2.73-7.361 19.03zm14.075 0h2.11l10.502 27.83-.645-.17 10.244-27.66h2.238l-12.267 32.08zm61.302 31.43l-24.105-27.35.56-.43.043 27.04h-2.066v-31.42h.129l24.105 27.56-.56.18-.043-27.09h2.023v31.51zm14.13-31.51h2.109v30.77h-2.109zm13.489 30.77l12.913-32.12h.173l12.913 32.12h-2.368l-11.234-28.73 1.463-.83-11.751 29.56zm6.242-12.18h13.559l.602 1.99h-14.678z"/></mask><path d="M8.443 57.8c1.894 0 3.544.33 4.95.99 1.435.64 2.54 1.61 3.314 2.91.804 1.27 1.206 2.87 1.206 4.81 0 1.16-.187 2.28-.56 3.38a7.635 7.635 0 01-1.722 2.9c-.774.87-1.779 1.56-3.013 2.08-1.205.52-2.668.78-4.39.78H3.493v12.92H1.384V57.8zm-.215 15.82c1.492 0 2.726-.23 3.702-.7 1.004-.49 1.779-1.09 2.324-1.82.574-.75.976-1.53 1.205-2.34.258-.81.388-1.56.388-2.25 0-.98-.158-1.88-.474-2.69a5.496 5.496 0 00-1.42-2.08 5.872 5.872 0 00-2.239-1.38c-.889-.35-1.908-.52-3.056-.52H3.493v13.78zM36.495 57.8c1.148 0 2.281.17 3.401.52 1.147.32 2.181.84 3.099 1.56.947.69 1.707 1.59 2.281 2.69.574 1.09.861 2.41.861 3.94 0 1.16-.172 2.28-.517 3.38a7.914 7.914 0 01-1.678 2.9c-.775.87-1.779 1.56-3.013 2.08s-2.755.78-4.563.78h-4.735v12.92h-2.109V57.8zm-.258 15.82c1.521 0 2.783-.22 3.788-.65 1.004-.44 1.793-1 2.367-1.69.574-.7.976-1.45 1.205-2.26a8.12 8.12 0 00.388-2.42c0-.93-.172-1.8-.517-2.6a5.913 5.913 0 00-1.42-2.13 6.612 6.612 0 00-2.281-1.47c-.89-.38-1.88-.56-2.971-.56h-5.165v13.78zm4.39.95l8.48 14h-2.453l-8.523-13.96zm17.769 14L71.31 56.45h.172l12.913 32.12h-2.367L70.793 59.84l1.464-.83-11.751 29.56zm6.242-12.18h13.559l.602 1.99H64.121zm51.856 10.14c-.66.41-1.42.8-2.281 1.17-.861.38-1.808.67-2.841.87-1.033.23-2.152.35-3.357.35-2.325 0-4.434-.41-6.328-1.22-1.894-.83-3.515-1.96-4.864-3.38a15.83 15.83 0 01-3.142-4.94c-.717-1.88-1.076-3.87-1.076-5.98 0-2.25.387-4.35 1.162-6.28.775-1.94 1.865-3.63 3.271-5.07a15.216 15.216 0 014.907-3.39c1.866-.8 3.889-1.21 6.07-1.21 1.607 0 3.113.22 4.519.65 1.406.43 2.683 1 3.831 1.69l-.904 1.95a16.225 16.225 0 00-3.4-1.6 12.336 12.336 0 00-4.003-.65c-1.808 0-3.516.36-5.123 1.08-1.607.7-3.027 1.68-4.261 2.95-1.205 1.24-2.152 2.7-2.841 4.38-.688 1.67-1.033 3.48-1.033 5.41 0 1.85.301 3.6.904 5.25a13.283 13.283 0 002.669 4.33 12.931 12.931 0 004.218 2.95c1.636.69 3.458 1.04 5.467 1.04 1.492 0 2.855-.2 4.089-.61 1.262-.43 2.382-.97 3.357-1.6zm10.176-13.3c0-2.17.402-4.19 1.205-6.07a15.773 15.773 0 013.358-5.03 15.471 15.471 0 014.95-3.42c1.894-.84 3.917-1.26 6.069-1.26s4.175.42 6.069 1.26c1.894.81 3.559 1.95 4.993 3.42a15.773 15.773 0 013.358 5.03c.832 1.88 1.248 3.9 1.248 6.07 0 2.16-.416 4.2-1.248 6.11a15.779 15.779 0 01-3.358 4.98 15.529 15.529 0 01-4.993 3.38c-1.894.81-3.917 1.22-6.069 1.22s-4.175-.39-6.069-1.17a15.445 15.445 0 01-4.95-3.3 15.13 15.13 0 01-3.358-4.98c-.803-1.91-1.205-3.99-1.205-6.24zm2.152.04c0 1.88.345 3.64 1.033 5.29.689 1.65 1.65 3.09 2.884 4.33a14.116 14.116 0 004.262 2.95 13.26 13.26 0 005.208 1.04c1.894 0 3.659-.35 5.294-1.04a13.958 13.958 0 004.305-2.95 13.378 13.378 0 002.884-4.33c.717-1.65 1.076-3.43 1.076-5.33 0-1.88-.359-3.64-1.076-5.29a13.279 13.279 0 00-2.884-4.38 13.574 13.574 0 00-4.305-2.99c-1.635-.72-3.386-1.08-5.251-1.08-1.894 0-3.659.37-5.294 1.13a13.415 13.415 0 00-4.305 2.99 14.155 14.155 0 00-2.841 4.42c-.66 1.64-.99 3.39-.99 5.24zm36.476-15.39h2.41l10.116 27.83-.474-.13 6.371-17.34.99 2.73L177.35 90zm14.075 0h2.11l10.502 27.83-.645-.17 10.244-27.66h2.238l-12.267 32.08zm61.302 31.43L216.57 61.96l.56-.43.043 27.04h-2.066V57.15h.129l24.105 27.56-.56.18-.043-27.09h2.023v31.51zm14.13-31.51h2.109v30.77h-2.109zm13.489 30.77l12.913-32.12h.173l12.913 32.12h-2.368l-11.234-28.73 1.463-.83-11.751 29.56zm6.242-12.18h13.559l.602 1.99h-14.678z" fill="#000"/><path d="M341.943 1170.8c1.894 0 3.544.33 4.95.99 1.435.64 2.54 1.61 3.314 2.91.804 1.27 1.206 2.87 1.206 4.81 0 1.16-.187 2.28-.56 3.38a7.635 7.635 0 01-1.722 2.9c-.774.87-1.779 1.56-3.013 2.08-1.205.52-2.668.78-4.39.78h-4.735v12.92h-2.109v-30.77zm-.215 15.82c1.492 0 2.726-.23 3.702-.7 1.004-.49 1.779-1.09 2.324-1.82.574-.75.976-1.53 1.205-2.34.258-.81.388-1.56.388-2.25 0-.98-.158-1.88-.474-2.69a5.496 5.496 0 00-1.42-2.08 5.872 5.872 0 00-2.239-1.38c-.889-.35-1.908-.52-3.056-.52h-5.165v13.78zm28.267-15.82c1.148 0 2.281.17 3.401.52 1.147.32 2.181.84 3.099 1.56.947.69 1.707 1.59 2.281 2.69.574 1.09.861 2.41.861 3.94 0 1.16-.172 2.28-.517 3.38a7.914 7.914 0 01-1.678 2.9c-.775.87-1.779 1.56-3.013 2.08s-2.755.78-4.563.78h-4.735v12.92h-2.109v-30.77zm-.258 15.82c1.521 0 2.783-.22 3.788-.65 1.004-.44 1.793-1 2.367-1.69.574-.7.976-1.45 1.205-2.26a8.12 8.12 0 00.388-2.42c0-.93-.172-1.8-.517-2.6a5.913 5.913 0 00-1.42-2.13 6.612 6.612 0 00-2.281-1.47c-.89-.38-1.88-.56-2.971-.56h-5.165v13.78zm4.39.95l8.48 14h-2.453l-8.523-13.96zm17.769 14l12.914-32.12h.172l12.913 32.12h-2.367l-11.235-28.73 1.464-.83-11.751 29.56zm6.242-12.18h13.559l.602 1.99h-14.678zm51.856 10.14c-.66.41-1.42.8-2.281 1.17-.861.38-1.808.67-2.841.87-1.033.23-2.152.35-3.357.35-2.325 0-4.434-.41-6.328-1.22-1.894-.83-3.515-1.96-4.864-3.38a15.83 15.83 0 01-3.142-4.94c-.717-1.88-1.076-3.87-1.076-5.98 0-2.25.387-4.35 1.162-6.28.775-1.94 1.865-3.63 3.271-5.07a15.216 15.216 0 014.907-3.39c1.866-.8 3.889-1.21 6.07-1.21 1.607 0 3.113.22 4.519.65 1.406.43 2.683 1 3.831 1.69l-.904 1.95a16.225 16.225 0 00-3.4-1.6 12.336 12.336 0 00-4.003-.65c-1.808 0-3.516.36-5.123 1.08-1.607.7-3.027 1.68-4.261 2.95-1.205 1.24-2.152 2.7-2.841 4.38-.688 1.67-1.033 3.48-1.033 5.41 0 1.85.301 3.6.904 5.25a13.283 13.283 0 002.669 4.33 12.931 12.931 0 004.218 2.95c1.636.69 3.458 1.04 5.467 1.04 1.492 0 2.855-.2 4.089-.61 1.262-.43 2.382-.97 3.357-1.6zm10.176-13.3c0-2.17.402-4.19 1.205-6.07a15.773 15.773 0 013.358-5.03 15.471 15.471 0 014.95-3.42c1.894-.84 3.917-1.26 6.069-1.26s4.175.42 6.069 1.26c1.894.81 3.559 1.95 4.993 3.42a15.773 15.773 0 013.358 5.03c.832 1.88 1.248 3.9 1.248 6.07 0 2.16-.416 4.2-1.248 6.11a15.779 15.779 0 01-3.358 4.98 15.529 15.529 0 01-4.993 3.38c-1.894.81-3.917 1.22-6.069 1.22s-4.175-.39-6.069-1.17a15.445 15.445 0 01-4.95-3.3 15.13 15.13 0 01-3.358-4.98c-.803-1.91-1.205-3.99-1.205-6.24zm2.152.04c0 1.88.345 3.64 1.033 5.29.689 1.65 1.65 3.09 2.884 4.33a14.116 14.116 0 004.262 2.95 13.26 13.26 0 005.208 1.04c1.894 0 3.659-.35 5.294-1.04a13.958 13.958 0 004.305-2.95 13.378 13.378 0 002.884-4.33c.717-1.65 1.076-3.43 1.076-5.33 0-1.88-.359-3.64-1.076-5.29a13.279 13.279 0 00-2.884-4.38 13.574 13.574 0 00-4.305-2.99c-1.635-.72-3.386-1.08-5.251-1.08-1.894 0-3.659.37-5.294 1.13a13.415 13.415 0 00-4.305 2.99 14.155 14.155 0 00-2.841 4.42c-.66 1.64-.99 3.39-.99 5.24zm36.476-15.39h2.41l10.116 27.83-.474-.13 6.371-17.34.99 2.73-7.361 19.03zm14.075 0h2.11l10.502 27.83-.645-.17 10.244-27.66h2.238l-12.267 32.08zm61.302 31.43l-24.105-27.35.56-.43.043 27.04h-2.066v-31.42h.129l24.105 27.56-.56.18-.043-27.09h2.023v31.51zm14.13-31.51h2.109v30.77h-2.109zm13.489 30.77l12.913-32.12h.173l12.913 32.12h-2.368l-11.234-28.73 1.463-.83-11.751 29.56zm6.242-12.18h13.559l.602 1.99h-14.678z" stroke="#fff" mask="url(#a)" transform="translate(-333.5 -1113)"/><path fill="#000" d="M90.5 12h10v10h-10zm0 10h20v10h-20z"/><path d="M242.669 2.13h-.001c-1.027-.48-2.169-.82-3.423-1.02-1.218-.24-2.682-.36-4.39-.36H219.25v41.5h2.644V28.17h14.294v0h.008l1.719-.05 9.831 14.02.074.11h3.162l-.278-.39-10.053-14.27c2.758-.83 5.027-2.42 6.803-4.76 1.887-2.48 2.832-5.28 2.832-8.4 0-2.67-.688-5.12-2.065-7.32-1.339-2.2-3.191-3.86-5.552-4.98zm3.216 6.25h.002c1.17 1.81 1.756 3.82 1.756 6.05 0 2-.491 3.84-1.473 5.53a11.227 11.227 0 01-3.969 4.04c-1.66.99-3.47 1.49-5.434 1.49h-14.873V3.43h12.961c2.728 0 4.814.31 6.276.92 2.041.89 3.623 2.23 4.754 4.03z" fill="#000" stroke="#000" stroke-width=".5"/><path d="M238.5 27L221.277 2.87" stroke="#000" stroke-width="2"/></svg>